<svg id="SvgjsSvg1001" width="288" height="288" xmlns="http://www.w3.org/2000/svg" version="1.1" xmlns:xlink="http://www.w3.org/1999/xlink" xmlns:svgjs="http://svgjs.com/svgjs"><defs id="SvgjsDefs1002"></defs><g id="SvgjsG1008" transform="matrix(1,0,0,1,0,0)"><svg xmlns="http://www.w3.org/2000/svg" width="288" height="288" version="1.0" viewBox="0 0 3288 2026"><path d="M9330 20020 c-195 -8 -562 -35 -685 -50 -199 -24 -592 -88 -735 -120-52 -11 -129 -27 -170 -35 -41 -8 -91 -19 -110 -25 -19 -6 -93 -26 -165 -44
-266 -68 -658 -202 -945 -323 -171 -72 -497 -226 -595 -280 -11 -7 -63 -35
-115 -64 -750 -413 -1432 -979 -2024 -1679 -11 -14 -46 -56 -76 -95 -30 -38
-61 -76 -68 -85 -51 -60 -277 -373 -336 -467 -27 -43 -67 -104 -88 -135 -21
-32 -38 -60 -38 -63 0 -4 -20 -37 -45 -75 -25 -38 -45 -72 -45 -76 0 -3 -15
-32 -34 -63 -46 -76 -72 -123 -188 -351 -55 -107 -107 -203 -116 -212 -8 -10
-12 -18 -7 -18 4 0 -4 -9 -19 -21 -14 -11 -26 -26 -26 -33 0 -7 -10 -22 -22
-33 -13 -11 -32 -32 -42 -47 -10 -14 -25 -26 -32 -26 -8 0 -14 -9 -14 -20 0
-11 -6 -20 -14 -20 -8 0 -18 -9 -21 -20 -3 -11 -13 -20 -21 -20 -8 0 -14 -7
-14 -16 0 -9 -16 -30 -35 -47 -19 -17 -35 -36 -35 -41 0 -6 -9 -17 -20 -24
-11 -7 -20 -18 -20 -26 0 -7 -9 -16 -21 -19 -12 -3 -18 -10 -14 -17 4 -7 -2
-14 -14 -17 -12 -3 -21 -13 -21 -24 0 -10 -15 -35 -34 -54 -19 -20 -38 -44
-41 -55 -4 -11 -13 -20 -21 -20 -8 0 -14 -7 -14 -15 0 -8 -4 -15 -9 -15 -5 0
-26 -24 -47 -52 -21 -29 -51 -66 -66 -83 -15 -16 -28 -34 -28 -38 0 -9 -38
-63 -61 -87 -9 -9 -33 -43 -54 -74 -21 -32 -44 -60 -52 -63 -7 -3 -13 -9 -13
-14 0 -5 -16 -32 -35 -59 -19 -27 -35 -52 -35 -55 0 -3 -16 -28 -35 -55 -19
-27 -35 -54 -35 -58 0 -5 -9 -17 -20 -27 -11 -10 -20 -24 -20 -31 0 -7 -6 -17
-13 -21 -7 -4 -18 -19 -25 -33 -7 -14 -21 -38 -32 -55 -11 -16 -27 -45 -35
-62 -8 -18 -20 -33 -25 -33 -6 0 -10 -8 -10 -19 0 -10 -9 -30 -20 -44 -11 -14
-20 -34 -20 -45 0 -11 -7 -22 -15 -26 -8 -3 -15 -14 -15 -24 0 -10 -9 -28 -20
-40 -11 -12 -20 -30 -20 -42 0 -11 -7 -20 -15 -20 -8 0 -17 -14 -21 -35 -3
-20 -12 -35 -20 -35 -8 0 -14 -10 -14 -25 0 -14 -9 -33 -20 -42 -11 -10 -20
-27 -20 -39 0 -11 -9 -29 -20 -39 -11 -10 -17 -21 -15 -25 3 -4 -1 -13 -9 -19
-7 -6 -21 -31 -31 -56 -9 -25 -21 -45 -26 -45 -5 0 -9 -8 -9 -19 0 -10 -7 -24
-15 -31 -8 -7 -15 -21 -15 -32 0 -11 -9 -31 -20 -45 -11 -14 -20 -36 -20 -49
0 -12 -10 -30 -22 -39 -13 -8 -22 -18 -20 -20 8 -17 0 -55 -13 -55 -8 0 -15
-9 -15 -19 0 -30 -11 -51 -26 -51 -9 0 -14 -12 -14 -34 0 -20 -6 -36 -14 -39
-8 -3 -18 -22 -21 -41 -4 -19 -13 -40 -21 -47 -8 -6 -14 -22 -14 -35 0 -13 -9
-33 -20 -44 -11 -11 -20 -30 -20 -43 0 -12 -6 -32 -14 -43 -8 -11 -18 -37 -21
-58 -4 -21 -14 -40 -21 -43 -9 -3 -14 -22 -14 -53 0 -30 -6 -52 -15 -60 -8 -7
-15 -23 -15 -36 0 -13 -9 -32 -20 -41 -14 -12 -20 -30 -20 -60 0 -32 -5 -45
-20 -53 -16 -8 -20 -21 -20 -60 0 -30 -6 -54 -15 -64 -8 -8 -15 -28 -15 -44 0
-16 -9 -37 -20 -47 -15 -13 -20 -31 -20 -66 0 -30 -6 -53 -16 -64 -9 -8 -18
-33 -21 -55 -3 -22 -12 -45 -19 -51 -8 -6 -14 -24 -14 -39 0 -34 -19 -90 -31
-90 -5 0 -9 -20 -9 -45 0 -26 -7 -60 -16 -77 -9 -16 -17 -58 -19 -91 -2 -40
-9 -65 -18 -72 -11 -8 -16 -33 -18 -80 -2 -51 -7 -73 -21 -87 -14 -14 -18 -34
-18 -87 0 -52 -4 -70 -15 -75 -11 -4 -15 -22 -15 -73 0 -49 -6 -79 -20 -106
-14 -26 -20 -56 -20 -102 0 -47 -6 -78 -21 -107 -17 -33 -21 -56 -18 -117 4
-127 1 -161 -16 -161 -13 0 -15 -21 -15 -129 0 -160 -7 -221 -26 -214 -12 4
-14 -47 -16 -308 -1 -173 -1 -336 0 -364 2 -32 0 -45 -6 -37 -7 11 -10 9 -15
-7 -2 -11 -1 -21 3 -23 13 -5 -9 -48 -25 -48 -11 0 -15 -12 -15 -50 0 -27 4
-50 9 -50 13 0 20 -24 36 -115 10 -56 15 -164 15 -362 0 -156 3 -283 8 -283
19 0 29 -57 31 -175 2 -95 6 -132 17 -142 15 -16 18 -49 15 -163 -2 -58 2 -85
18 -120 14 -30 21 -66 21 -109 0 -49 4 -67 18 -77 13 -10 18 -31 21 -106 2
-66 7 -95 17 -101 10 -6 14 -29 14 -84 0 -55 4 -81 16 -94 8 -9 18 -43 21 -75
4 -39 12 -65 24 -77 14 -13 19 -32 19 -67 0 -30 6 -54 15 -64 10 -10 15 -35
15 -75 0 -50 4 -63 20 -73 16 -10 20 -24 20 -63 0 -28 7 -59 15 -69 8 -11 15
-36 15 -55 0 -20 9 -49 20 -66 11 -16 20 -40 20 -52 0 -12 7 -29 17 -38 9 -9
18 -39 21 -68 3 -29 11 -56 18 -60 9 -5 14 -25 14 -52 0 -30 5 -47 16 -53 10
-5 18 -28 22 -58 3 -27 11 -55 19 -62 7 -7 13 -24 13 -36 0 -13 9 -35 20 -49
11 -14 20 -37 20 -51 0 -14 9 -35 20 -46 11 -11 20 -33 20 -51 0 -16 4 -28 9
-25 10 6 21 -27 21 -64 0 -14 9 -31 19 -37 12 -7 21 -26 23 -45 2 -18 8 -32
13 -31 6 1 11 -12 12 -29 1 -17 12 -48 23 -70 11 -21 20 -46 20 -56 0 -9 9
-23 20 -30 11 -7 20 -23 20 -37 0 -16 6 -25 15 -25 9 0 15 -9 15 -25 0 -37 1
-39 21 -53 11 -7 19 -24 19 -38 0 -13 7 -27 15 -30 8 -4 18 -24 21 -45 4 -21
13 -44 20 -50 8 -6 14 -24 14 -40 0 -15 4 -31 10 -34 5 -3 22 -31 36 -61 14
-30 34 -59 45 -64 11 -6 19 -21 19 -35 0 -14 9 -30 20 -37 12 -8 20 -24 20
-40 0 -17 5 -28 14 -28 8 0 17 -15 20 -35 4 -19 11 -35 17 -35 6 0 15 -14 20
-30 6 -17 15 -30 19 -30 4 0 11 -15 14 -34 4 -19 13 -39 21 -46 8 -7 15 -21
15 -31 0 -11 5 -19 10 -19 6 0 15 -12 21 -27 5 -15 19 -33 29 -40 11 -8 20
-22 20 -32 0 -10 7 -24 15 -31 8 -7 15 -19 15 -26 0 -8 6 -14 14 -14 15 0 26
-21 26 -50 0 -10 7 -20 15 -24 8 -3 15 -12 15 -20 0 -7 8 -16 18 -18 11 -3 18
-16 20 -34 1 -16 7 -31 12 -32 6 -2 17 -18 26 -35 30 -63 45 -86 73 -109 15
-13 31 -36 35 -51 3 -15 13 -27 21 -27 8 0 15 -7 15 -15 0 -8 13 -28 30 -43
16 -16 27 -32 23 -35 -3 -4 -1 -7 5 -7 7 0 12 -8 12 -19 0 -10 9 -21 20 -24
11 -3 20 -12 20 -20 0 -8 7 -17 15 -21 8 -3 15 -17 15 -32 0 -23 18 -50 97
-144 7 -8 37 -40 68 -71 32 -34 55 -66 55 -79 0 -11 4 -19 9 -16 5 4 15 -7 23
-24 7 -16 19 -30 25 -30 7 0 13 -5 13 -11 0 -5 25 -41 55 -78 30 -38 55 -73
55 -78 0 -6 9 -13 20 -16 11 -3 20 -13 20 -22 0 -9 4 -13 10 -10 5 3 15 -3 22
-15 7 -11 18 -20 25 -20 7 0 13 -9 13 -20 0 -11 6 -20 14 -20 8 0 18 -9 21
-20 4 -11 11 -18 16 -15 5 4 12 -2 16 -12 4 -10 15 -24 25 -31 10 -7 18 -20
18 -28 0 -8 4 -13 8 -10 4 2 14 -9 21 -26 14 -31 86 -108 101 -108 5 0 14 -9
20 -19 5 -11 19 -22 29 -26 11 -3 26 -19 33 -35 7 -17 18 -30 25 -30 6 0 15
-9 18 -20 3 -11 13 -20 21 -20 8 0 14 -6 14 -14 0 -7 9 -16 20 -19 11 -3 20
-12 20 -21 0 -9 7 -16 15 -16 8 0 15 -4 15 -9 0 -6 30 -39 68 -76 93 -90 94
-92 120 -99 12 -4 20 -12 17 -17 -4 -5 -1 -9 5 -9 6 0 29 -18 51 -40 22 -22
44 -40 47 -40 11 0 52 -47 52 -59 0 -6 7 -11 15 -11 8 0 15 -4 15 -9 0 -12 59
-71 71 -71 5 0 9 -6 9 -13 0 -6 12 -18 28 -24 15 -7 40 -24 56 -38 16 -14 33
-25 38 -25 4 0 23 -15 41 -33 17 -18 44 -38 60 -45 15 -6 27 -16 27 -22 0 -5
6 -10 13 -10 7 0 32 -22 56 -50 39 -45 130 -115 173 -132 10 -4 18 -13 18 -20
0 -8 12 -15 28 -16 15 -1 32 -8 37 -15 6 -7 18 -16 28 -20 9 -3 17 -13 17 -22
0 -8 9 -15 20 -15 11 0 20 -5 20 -12 0 -6 3 -8 7 -5 3 4 18 -6 33 -21 15 -16
34 -32 44 -35 9 -4 16 -13 16 -22 0 -8 5 -15 10 -15 6 0 33 -16 60 -35 28 -20
64 -38 80 -42 16 -3 27 -9 24 -14 -2 -5 7 -11 21 -15 14 -3 25 -12 25 -20 0
-8 10 -14 25 -14 14 0 30 -9 37 -20 7 -11 19 -20 26 -20 7 0 15 -7 18 -15 4
-8 17 -15 30 -15 13 0 29 -9 36 -20 7 -11 17 -20 23 -20 6 0 16 -9 23 -20 7
-11 19 -20 28 -20 9 0 27 -9 41 -20 14 -11 31 -20 38 -20 7 0 18 -7 25 -15 7
-8 23 -15 36 -15 15 0 24 -6 24 -15 0 -8 3 -14 7 -13 17 4 53 -14 53 -28 0 -9
11 -14 35 -14 28 0 35 -4 35 -20 0 -16 7 -20 35 -20 24 0 35 -5 35 -15 0 -8 9
-15 20 -15 11 0 25 -9 32 -20 7 -11 20 -20 28 -20 8 0 26 -9 40 -20 14 -11 33
-20 42 -20 9 0 23 -6 30 -13 7 -8 31 -18 53 -24 22 -5 39 -15 38 -21 -2 -7 11
-12 32 -12 21 0 38 -6 41 -14 3 -8 20 -17 39 -20 18 -4 36 -13 39 -21 3 -9 18
-15 35 -15 21 0 32 -6 36 -20 4 -12 15 -20 29 -20 13 0 29 -7 36 -15 7 -8 21
-15 31 -15 11 0 27 -8 37 -18 11 -11 39 -22 63 -25 24 -3 48 -12 54 -19 10
-13 25 -18 57 -21 10 -1 20 -7 22 -14 3 -7 19 -13 37 -13 22 0 32 -5 36 -20 4
-16 14 -20 48 -20 29 0 45 -5 49 -15 3 -8 15 -15 26 -15 11 0 28 -9 37 -20 10
-12 30 -20 48 -20 16 0 45 -9 63 -20 18 -11 42 -20 55 -20 35 0 67 -11 61 -21
-3 -5 15 -9 40 -9 33 0 52 -6 66 -20 11 -11 31 -20 44 -20 14 0 31 -7 40 -15
8 -8 26 -15 40 -15 29 0 76 -19 76 -32 0 -4 15 -8 33 -8 17 0 47 -9 65 -20 21
-13 50 -20 82 -20 30 0 54 -6 64 -15 8 -9 33 -15 59 -15 24 0 47 -3 51 -7 4
-5 13 -8 19 -8 7 -1 11 -6 10 -13 -2 -8 14 -12 50 -13 28 -1 55 -1 59 0 5 0 7
-4 5 -11 -3 -14 35 -26 89 -27 24 -1 47 -7 54 -16 9 -10 32 -15 74 -15 44 0
69 -6 91 -20 22 -14 47 -20 92 -20 42 0 65 -4 70 -14 5 -9 33 -15 85 -18 54
-2 82 -8 95 -21 16 -13 38 -17 109 -17 70 0 97 -4 127 -20 30 -16 56 -20 143
-20 80 0 109 -4 120 -15 11 -11 39 -15 97 -16 84 0 117 -3 197 -15 25 -4 51
-6 58 -5 6 1 12 -2 12 -7 0 -9 457 -25 627 -23 65 1 73 -1 91 -24 16 -21 29
-25 68 -25 43 0 51 4 69 29 l19 30 345 1 c255 0 347 4 353 13 4 6 10 8 14 5 3
-4 13 -1 21 7 11 12 47 15 168 15 116 0 160 4 181 15 21 10 61 15 137 15 94 0
109 2 127 20 16 16 33 20 90 20 49 0 80 6 105 19 24 13 58 19 112 20 56 1 80
6 86 16 6 11 27 15 74 15 49 0 71 5 86 17 13 13 41 19 93 21 46 3 78 9 85 18
7 9 32 14 66 14 40 0 59 5 75 20 14 13 36 20 60 20 24 0 46 7 58 18 12 11 38
19 66 21 26 1 53 9 61 17 8 8 33 14 59 14 31 0 50 6 64 20 15 15 33 20 70 20
38 0 50 4 50 15 0 8 3 15 8 16 53 3 100 14 113 25 8 8 34 14 57 14 31 0 42 4
42 16 0 8 4 13 9 9 5 -3 12 -1 16 5 3 5 23 10 45 10 24 0 40 5 44 15 3 9 18
15 37 15 17 0 42 9 56 20 14 11 40 20 58 20 19 0 35 6 38 14 3 8 24 17 47 21
23 4 44 13 47 21 3 8 19 14 39 14 23 0 37 6 44 20 7 13 21 20 39 20 16 0 34 7
41 15 7 8 27 17 46 21 19 3 32 10 29 14 -7 11 20 20 55 20 19 0 33 7 40 20 7
13 21 20 39 20 16 0 34 7 41 15 7 8 22 15 34 15 12 0 27 9 34 20 7 11 23 20
37 20 14 0 28 6 31 14 3 8 24 18 45 21 22 4 43 13 46 21 3 8 18 14 34 14 18 0
28 5 26 13 -1 6 4 11 11 10 6 -2 12 2 12 7 0 6 9 10 19 10 11 0 26 7 35 15 8
8 21 15 30 15 8 0 22 8 32 17 9 10 29 19 43 21 14 2 29 9 33 17 4 7 23 16 42
19 19 4 39 13 46 21 7 8 20 15 30 15 9 0 25 9 35 20 10 11 24 20 32 20 8 0 19
5 26 10 30 25 89 60 102 60 8 0 15 4 15 9 0 5 15 15 33 22 17 7 38 19 45 26 7
7 19 13 26 13 7 0 21 9 31 20 10 11 24 20 32 20 7 0 13 5 13 11 0 5 13 15 29
20 16 6 32 17 35 25 3 8 10 14 16 14 5 0 19 9 30 20 11 11 29 20 39 20 10 0
21 7 25 15 3 8 12 15 21 15 8 0 15 7 15 15 0 8 14 17 35 21 21 4 37 13 40 25
4 10 12 19 20 19 7 0 15 7 19 15 3 8 9 15 13 14 32 -5 53 3 53 21 0 13 7 20
20 20 11 0 20 7 20 15 0 8 9 15 20 15 11 0 28 8 38 18 10 10 26 22 36 25 9 4
14 11 11 17 -3 5 0 10 8 10 7 0 22 8 33 19 11 10 30 22 41 25 12 4 24 13 27
21 3 8 12 15 21 15 8 0 15 6 15 14 0 8 12 19 28 25 45 19 67 35 104 74 20 20
39 37 43 37 13 0 64 48 58 54 -3 3 8 9 25 12 18 4 32 13 32 20 0 8 6 14 14 14
8 0 18 9 21 20 3 11 12 20 19 20 7 0 26 16 42 35 16 19 32 35 36 35 5 0 17 9
28 20 11 11 27 20 35 20 8 0 15 7 15 15 0 8 7 15 15 15 8 0 19 9 25 20 6 11
17 20 25 20 8 0 15 7 15 16 0 9 9 18 20 21 11 3 20 12 20 19 0 8 6 14 13 14 7
0 18 9 25 20 7 11 17 20 23 20 7 0 42 32 79 70 37 39 75 70 85 70 9 0 19 9 22
20 3 11 12 20 19 20 8 0 14 7 14 16 0 9 9 18 20 21 11 3 20 12 20 19 0 8 6 14
14 14 8 0 18 9 21 20 3 11 10 20 15 20 13 0 60 46 60 59 0 6 7 11 15 11 8 0
15 7 15 16 0 9 9 18 20 21 11 3 20 11 20 18 0 7 9 15 20 18 11 3 20 12 20 20
0 8 7 17 15 21 8 3 15 12 15 21 0 8 6 15 14 15 8 0 23 15 35 33 11 17 29 39
40 47 12 8 21 20 21 27 0 7 9 18 20 25 11 7 20 18 20 25 0 7 7 13 15 13 8 0
15 6 15 14 0 8 9 18 20 21 11 3 20 13 20 20 0 8 9 19 20 25 11 6 20 18 20 26
0 10 6 14 15 10 10 -3 15 1 15 13 0 10 9 21 20 24 11 3 20 12 20 21 0 9 9 26
20 38 12 13 27 30 35 39 8 9 15 21 15 27 0 6 9 14 20 17 11 3 20 13 20 21 0 8
6 14 14 14 7 0 16 14 20 31 3 17 10 28 15 25 5 -4 12 2 15 12 3 10 29 42 58
72 56 59 71 79 89 123 6 15 17 27 25 27 8 0 14 6 14 13 0 7 9 20 20 30 11 9
20 26 20 37 0 10 9 24 20 30 11 6 20 17 20 25 0 8 4 14 10 12 9 -2 45 52 56
85 4 10 13 18 20 18 8 0 14 9 14 20 0 13 7 20 20 20 16 0 20 7 20 30 0 18 6
33 15 36 8 4 15 12 15 19 0 8 9 16 19 20 12 3 21 19 25 40 4 21 13 35 21 35 8
0 15 7 15 15 0 9 7 18 15 21 8 4 15 14 15 24 0 11 14 34 31 52 17 18 37 48 45
65 8 18 19 33 24 33 6 0 10 6 10 13 0 8 9 24 20 37 11 13 20 29 20 37 0 7 7
16 15 19 8 4 15 15 15 25 0 10 9 28 20 39 11 11 20 26 20 33 0 6 9 23 20 37
11 14 20 31 20 38 0 7 6 15 14 18 8 3 18 19 21 36 4 16 13 32 21 35 8 3 14 13
14 23 0 10 6 23 14 29 8 7 17 24 21 39 4 15 13 34 21 43 8 8 15 28 16 43 1 15
10 34 20 43 10 9 18 27 18 40 0 13 7 26 15 29 8 4 15 15 15 25 0 10 4 19 10
19 5 0 9 6 7 13 -1 6 4 11 11 10 7 -2 12 8 12 28 0 16 4 28 9 24 9 -5 31 53
31 81 0 7 7 14 15 18 8 3 15 17 15 31 0 14 9 30 20 37 12 8 20 24 20 41 0 15
7 30 15 33 8 4 15 19 15 35 0 18 7 32 20 39 13 7 20 21 20 40 0 35 9 62 20 55
4 -3 11 10 14 29 4 19 13 39 21 46 8 7 15 23 15 36 0 13 9 32 20 41 12 11 20
30 20 49 0 19 6 34 15 38 8 3 18 24 21 46 4 23 13 44 20 47 8 3 14 19 14 38 0
18 9 44 20 58 11 14 20 36 20 50 0 14 6 32 14 39 7 8 17 42 21 76 4 34 11 60
15 57 11 -7 20 20 20 56 0 17 6 32 15 35 10 4 15 20 15 49 0 24 5 47 10 50 6
4 8 11 5 16 -4 5 1 9 9 9 12 0 16 11 16 45 0 32 6 51 20 65 14 14 20 33 20 64
0 26 6 51 14 59 8 8 16 35 17 61 2 28 10 54 21 66 10 11 18 34 18 53 0 19 9
46 20 60 14 18 20 40 20 80 0 34 5 59 14 66 9 7 15 39 18 85 2 51 9 80 20 93
12 13 17 40 19 93 1 46 7 80 16 88 8 8 13 37 13 75 0 43 6 74 20 100 15 27 20
56 20 109 0 57 5 79 20 98 16 21 20 41 20 125 0 69 5 109 15 129 11 21 15 65
15 181 0 141 1 154 20 166 19 14 20 25 20 376 1 312 3 362 16 367 12 5 13 10
3 27 -6 12 -7 24 -3 28 13 9 14 45 2 52 -7 4 -7 13 0 26 8 14 8 23 0 31 -8 8
-8 12 -1 12 6 0 16 -7 23 -15 7 -9 16 -12 19 -7 3 5 97 -64 208 -152 266 -212
394 -313 453 -356 26 -19 99 -74 161 -121 117 -88 433 -317 549 -397 118 -82
213 -147 229 -157 9 -5 36 -24 61 -41 25 -17 122 -79 215 -139 94 -59 193
-122 220 -139 28 -18 84 -52 125 -76 41 -24 102 -60 135 -80 33 -21 87 -52
120 -70 33 -18 98 -54 145 -80 196 -107 422 -224 530 -273 30 -14 96 -44 145
-67 141 -66 614 -260 634 -260 5 0 51 -15 102 -34 181 -67 568 -180 719 -210
14 -3 97 -21 185 -40 88 -19 212 -42 275 -51 63 -8 122 -17 130 -20 53 -16
404 -51 645 -64 586 -33 1362 20 1950 133 39 7 122 23 185 35 116 21 475 112
670 169 95 28 287 93 490 166 216 78 698 300 900 414 25 14 81 45 125 70 306
173 740 473 994 687 326 275 696 642 916 909 131 159 151 185 231 291 105 139
139 187 209 290 38 55 76 111 85 125 33 48 190 302 190 307 0 3 15 31 34 62
63 103 106 185 205 386 123 249 191 394 191 407 0 8 24 67 51 123 5 11 20 49
33 85 13 36 39 108 58 160 51 141 105 306 127 390 11 41 27 100 36 130 17 55
62 250 90 388 8 41 17 77 20 82 2 4 9 45 15 91 5 46 19 158 30 249 26 204 43
433 43 565 0 112 -20 510 -27 534 -3 9 -10 70 -16 136 -21 247 -38 369 -75
545 -7 36 -21 108 -31 160 -9 52 -28 138 -42 190 -13 52 -30 120 -37 150 -19
83 -34 138 -60 215 -13 39 -28 88 -34 110 -5 22 -26 85 -46 140 -20 55 -39
109 -42 120 -3 11 -11 34 -18 50 -7 17 -27 68 -45 115 -18 47 -52 129 -76 183
-24 53 -44 101 -44 106 0 4 -11 30 -25 56 -14 26 -36 71 -48 99 -48 111 -251
485 -344 633 -322 513 -643 911 -1068 1323 -298 289 -728 628 -1013 799 -26
16 -107 65 -180 109 -141 86 -547 292 -697 354 -409 170 -727 266 -1155 348
-178 35 -206 39 -434 62 -192 20 -272 22 -617 21 -217 0 -415 -3 -440 -7 -24
-3 -136 -10 -249 -16 -512 -28 -1123 -114 -1515 -212 -44 -11 -123 -30 -175
-43 -124 -29 -395 -110 -490 -145 -41 -15 -93 -33 -115 -40 -57 -18 -255 -94
-355 -137 -449 -190 -840 -400 -1235 -662 -863 -574 -1694 -1339 -2784 -2565
-118 -133 -237 -268 -265 -302 -72 -85 -198 -232 -286 -334 -41 -48 -117 -137
-168 -198 -51 -61 -99 -116 -107 -122 -11 -9 -37 10 -127 92 -63 57 -161 145
-219 197 -201 182 -272 246 -298 271 -14 14 -57 52 -96 85 -38 33 -92 81 -120
106 -65 60 -367 325 -575 504 -89 77 -167 145 -174 150 -21 19 -258 220 -302
255 -23 19 -127 104 -231 189 -335 274 -594 480 -724 576 -15 11 -71 54 -125
95 -104 79 -119 90 -211 158 -32 23 -69 51 -83 61 -149 113 -535 378 -855 586
-196 127 -467 290 -670 403 -365 202 -701 364 -1040 503 -66 27 -129 54 -140
59 -63 30 -539 189 -730 243 -331 95 -804 184 -1115 212 -91 8 -214 19 -275
25 -152 13 -633 20 -845 10z m16975 -2320 c116 -11 217 -22 225 -25 8 -3 65
-12 125 -20 61 -8 142 -20 180 -25 112 -16 473 -90 590 -120 44 -12 123 -33
175 -46 105 -27 184 -51 215 -64 11 -5 58 -20 105 -33 109 -32 294 -96 390
-135 41 -16 93 -37 115 -45 22 -8 70 -29 107 -46 36 -17 70 -31 74 -31 8 0 78
-33 279 -132 126 -61 175 -88 363 -193 137 -76 457 -290 582 -388 196 -154
304 -250 475 -421 94 -94 191 -196 215 -226 25 -30 59 -70 76 -90 90 -103 233
-309 336 -485 78 -132 224 -430 243 -495 4 -14 18 -53 31 -88 32 -80 119 -388
134 -472 82 -450 92 -883 30 -1280 -5 -36 -15 -96 -20 -135 -22 -146 -110
-466 -159 -580 -5 -11 -17 -42 -27 -70 -16 -46 -58 -142 -105 -240 -10 -22
-39 -76 -64 -120 -24 -44 -53 -96 -64 -116 -58 -104 -201 -302 -318 -441 -330
-389 -776 -721 -1278 -951 -211 -96 -458 -191 -590 -226 -39 -11 -108 -31
-155 -45 -47 -15 -128 -36 -180 -47 -52 -11 -124 -27 -160 -35 -36 -8 -141
-25 -235 -39 -93 -13 -201 -29 -240 -34 -344 -53 -1048 -53 -1350 -1 -33 6
-134 21 -225 35 -91 13 -194 31 -230 40 -36 8 -117 27 -180 40 -63 14 -126 29
-140 34 -24 9 -91 29 -235 69 -71 20 -364 122 -465 161 -30 12 -71 28 -90 36
-57 22 -162 65 -205 85 -22 10 -69 30 -105 45 -36 15 -85 37 -110 50 -25 12
-115 56 -200 98 -274 134 -651 344 -910 507 -41 26 -96 60 -122 76 -27 16 -48
32 -48 37 0 4 -6 7 -12 7 -17 0 -428 278 -657 445 -249 181 -409 301 -576 434
-49 39 -114 90 -144 114 -58 45 -346 282 -421 346 -25 22 -79 67 -120 102 -80
68 -102 87 -190 165 -31 27 -84 74 -119 104 -35 30 -71 62 -80 71 -9 9 -90 83
-181 164 -228 204 -557 513 -794 745 -376 368 -841 841 -844 858 -6 38 552
600 903 908 186 164 569 474 675 547 14 9 59 42 100 72 79 58 497 338 546 367
16 9 67 40 114 68 79 49 161 96 335 191 157 87 503 253 670 322 55 22 85 35
160 67 28 12 77 31 110 42 33 11 74 26 90 34 50 23 282 101 510 171 28 8 100
28 160 43 61 16 146 38 190 50 130 34 476 103 605 120 190 25 296 40 309 44
32 10 381 38 556 46 99 4 374 6 610 4 344 -2 472 -7 640 -24z m-12473 -3554
c24 -8 69 -16 100 -18 35 -3 65 -11 76 -21 11 -10 35 -17 60 -17 31 0 45 -5
54 -20 9 -13 24 -20 46 -20 19 0 35 -6 38 -14 3 -8 20 -17 39 -20 18 -4 38
-13 45 -21 7 -8 18 -15 25 -15 19 0 115 -51 115 -61 0 -5 11 -9 24 -9 14 0 31
-8 38 -17 14 -19 40 -38 75 -52 12 -6 46 -34 76 -63 72 -70 108 -102 143 -124
16 -11 38 -30 49 -44 11 -13 37 -43 57 -65 21 -22 38 -48 38 -57 0 -10 6 -18
14 -18 15 0 96 -116 96 -137 0 -7 4 -13 10 -13 5 0 16 -16 24 -35 8 -19 20
-35 25 -35 6 0 11 -6 11 -13 0 -8 9 -22 20 -32 11 -10 20 -29 20 -42 0 -13 9
-33 20 -45 11 -12 20 -30 20 -39 0 -10 7 -24 15 -33 8 -8 15 -29 15 -47 0 -18
7 -37 16 -44 9 -6 18 -32 22 -61 3 -27 11 -58 17 -69 7 -11 15 -44 19 -74 3
-30 12 -61 21 -71 14 -15 15 -271 13 -2447 -3 -1978 -5 -2433 -16 -2446 -7 -8
-17 -48 -21 -88 -4 -40 -13 -75 -19 -77 -7 -2 -12 -24 -12 -51 0 -35 -5 -53
-20 -66 -12 -11 -20 -31 -20 -50 0 -18 -7 -38 -15 -45 -8 -7 -15 -20 -15 -30
0 -9 -9 -29 -20 -43 -11 -14 -20 -34 -20 -45 0 -10 -9 -27 -20 -37 -11 -10
-20 -26 -20 -35 0 -10 -7 -20 -15 -24 -8 -3 -15 -14 -15 -26 0 -11 -9 -25 -20
-32 -11 -7 -20 -18 -20 -25 0 -17 -44 -80 -80 -115 -17 -15 -30 -31 -30 -35 0
-29 -245 -273 -275 -273 -4 0 -21 -16 -38 -35 -17 -19 -39 -35 -49 -35 -10 0
-18 -4 -18 -8 0 -11 -78 -62 -94 -62 -7 0 -21 -9 -31 -20 -10 -11 -24 -20 -30
-20 -7 0 -18 -7 -25 -15 -7 -8 -20 -15 -30 -15 -9 0 -29 -9 -43 -20 -14 -11
-33 -20 -42 -20 -9 0 -28 -9 -42 -20 -14 -11 -37 -20 -52 -20 -14 0 -35 -7
-45 -15 -11 -8 -39 -15 -63 -15 -24 0 -43 -4 -43 -8 0 -16 -51 -32 -101 -32
-30 0 -60 -7 -76 -17 -26 -17 -135 -18 -1873 -21 l-1845 -3 -1281 -1279 c-704
-704 -1287 -1280 -1295 -1280 -9 0 -24 -9 -34 -20 -16 -18 -31 -20 -123 -20
-105 0 -105 0 -138 33 -19 17 -34 41 -34 51 0 10 -8 25 -17 32 -17 12 -18 85
-21 1248 l-2 1235 -973 3 c-907 3 -975 4 -1000 20 -16 11 -46 18 -76 18 -50 0
-101 16 -101 32 0 4 -22 8 -49 8 -31 0 -53 5 -61 15 -7 8 -25 15 -40 15 -15 0
-39 9 -53 20 -14 11 -35 20 -46 20 -12 0 -21 4 -21 9 0 5 -16 16 -35 25 -19 9
-37 21 -40 26 -3 6 -14 10 -24 10 -10 0 -26 9 -36 20 -10 11 -26 20 -36 20
-10 0 -24 6 -31 13 -7 6 -25 18 -40 26 -16 8 -28 18 -28 23 0 4 -6 8 -12 8 -7
0 -30 16 -51 35 -21 19 -42 35 -46 35 -13 0 -271 264 -271 277 0 7 -4 13 -9
13 -5 0 -26 24 -47 53 -21 28 -42 54 -46 55 -5 2 -8 12 -8 23 0 10 -4 19 -9
19 -5 0 -16 18 -24 39 -9 22 -21 42 -27 46 -5 3 -10 13 -10 21 0 8 -9 24 -20
36 -11 12 -20 29 -20 39 0 9 -6 19 -14 22 -8 3 -17 19 -21 36 -3 16 -13 35
-21 42 -8 6 -14 28 -14 49 0 24 -7 43 -20 55 -14 12 -20 31 -20 57 0 22 -7 46
-15 54 -10 10 -15 35 -15 69 0 31 -8 70 -20 96 -19 43 -20 75 -20 2449 0 2386
0 2406 20 2443 11 20 20 54 20 75 0 21 6 46 14 57 7 11 16 41 20 67 4 25 14
52 21 58 8 7 15 27 15 45 0 18 6 38 14 44 8 6 19 32 25 56 6 25 16 45 21 45 6
0 10 11 10 23 0 13 9 32 20 42 11 10 20 27 20 37 0 10 7 21 15 24 8 4 15 15
15 25 0 10 9 28 20 39 11 11 20 22 20 25 0 14 85 125 96 125 8 0 14 7 14 15 0
9 14 32 32 53 58 67 222 222 235 222 7 0 17 9 23 20 6 11 17 20 25 20 8 0 15
4 15 8 0 9 77 62 91 62 4 0 13 9 19 20 6 12 21 20 35 20 14 0 25 5 25 11 0 5
15 16 34 24 19 8 37 19 41 25 3 5 15 10 27 10 11 0 31 9 45 20 14 11 34 20 45
20 11 0 26 7 34 15 9 8 29 15 46 15 16 0 41 9 55 20 14 11 41 20 60 20 18 0
44 6 56 14 12 8 45 18 72 22 28 4 59 13 70 20 30 21 8584 21 8647 0z" transform="matrix(.1 0 0 -.1 0 2026)" fill="#3978c5" class="color000 svgShape"></path></svg></g></svg>